<?xml version="1.0" encoding="utf-8"?>
<svg viewBox="2.0088 2.4911 2063.9998 2064" xmlns="http://www.w3.org/2000/svg">
  <defs>
    <style>
		.s0 { fill: none;stroke: #000000;stroke-miterlimit:10;stroke-width: 15 }
		.s1 { fill: #feca1c }
		.s2 { fill: #e5ae13 }
		.s3 { fill: #f4b925 }
		.s4 { fill: none;stroke: #000000;stroke-miterlimit:10;stroke-width: 10 }
		.s5 { fill: #ffffff }
	</style>
  </defs>
  <g id="Layer 1" transform="matrix(1, 0, 0, 1, -2582.491455078125, -365.5087890625)">
    <g id="&lt;Group&gt;">
      <g id="&lt;Group&gt;">
        <g id="&lt;Group&gt;"/>
      </g>
      <g id="&lt;Group&gt;">
        <g id="&lt;Group&gt;"/>
      </g>
      <g id="&lt;Group&gt;">
        <g id="&lt;Group&gt;"/>
      </g>
      <g id="&lt;Group&gt;">
        <g id="&lt;Group&gt;"/>
      </g>
      <g id="&lt;Group&gt;">
        <g id="&lt;Group&gt;"/>
      </g>
      <g id="&lt;Group&gt;">
        <g id="&lt;Group&gt;">
          <path id="&lt;Path&gt;" class="s0" d=""/>
        </g>
      </g>
      <g id="&lt;Group&gt;">
        <g id="&lt;Group&gt;">
          <path id="&lt;Path&gt;" class="s0" d=""/>
        </g>
      </g>
      <g id="&lt;Group&gt;">
        <g id="&lt;Group&gt;">
          <g id="&lt;Group&gt;"/>
        </g>
        <g id="&lt;Group&gt;">
          <g id="&lt;Group&gt;"/>
        </g>
      </g>
      <g id="&lt;Group&gt;">
        <g id="&lt;Group&gt;">
          <path id="&lt;Path&gt;" class="s1" d="m4543.2 2412h-1853.5c-47.1 0-85.2-38.2-85.2-85.3v-1853.4c0-47.1 38.1-85.3 85.2-85.3h1853.5c47.1 0 85.3 38.2 85.3 85.3v1853.4c0 47.1-38.2 85.3-85.3 85.3z"/>
        </g>
        <g id="&lt;Group&gt;">
          <path id="&lt;Compound Path&gt;" fill-rule="evenodd" class="s2" d="m4543.2 2432h-1853.5c-58 0-105.2-47.2-105.2-105.3v-1853.4c0-58.1 47.2-105.3 105.2-105.3h1853.5c58 0 105.3 47.2 105.3 105.3v1853.4c0 58.1-47.3 105.3-105.3 105.3zm-1853.5-2024c-36 0-65.2 29.3-65.2 65.3v1853.4c0 36 29.2 65.3 65.2 65.3h1853.5c36 0 65.3-29.3 65.3-65.3v-1853.4c0-36-29.3-65.3-65.3-65.3z"/>
        </g>
      </g>
      <g id="&lt;Group&gt;">
        <g id="&lt;Group&gt;">
          <path id="&lt;Path&gt;" class="s2" d="m2892.7 576.5c0 56.6-45.9 102.5-102.5 102.5-56.6 0-102.5-45.9-102.5-102.5 0-56.6 45.9-102.5 102.5-102.5 56.6 0 102.5 45.9 102.5 102.5z"/>
        </g>
      </g>
      <g id="&lt;Group&gt;">
        <g id="&lt;Group&gt;">
          <path id="&lt;Path&gt;" class="s2" d="m2687.7 2223.5c0-56.6 45.9-102.5 102.5-102.5 56.6 0 102.5 45.9 102.5 102.5 0 56.6-45.9 102.5-102.5 102.5-56.6 0-102.5-45.9-102.5-102.5z"/>
        </g>
      </g>
      <g id="&lt;Group&gt;">
        <g id="&lt;Group&gt;">
          <path id="&lt;Path&gt;" class="s2" d="m4545.2 576.5c0 56.6-45.9 102.5-102.5 102.5-35.5 0-66.8-18.1-85.2-45.6-7.5-11.2-12.9-24-15.5-37.8-1.2-6.2-1.8-12.6-1.8-19.1 0-56.6 45.9-102.5 102.5-102.5 28.9 0 55.1 12 73.7 31.3 15.8 16.4 26.3 38 28.4 62q0.4 4.6 0.4 9.2z"/>
        </g>
      </g>
      <g id="&lt;Group&gt;">
        <g id="&lt;Group&gt;">
          <path id="&lt;Path&gt;" class="s3" d="m4545.2 576.5c0 56.6-45.9 102.5-102.5 102.5-35.5 0-66.8-18.1-85.2-45.6q-0.4-4.5-0.4-9.1c0-56.6 45.9-102.5 102.5-102.5 28.9 0 55 12 73.7 31.3 4.2 4.4 8.1 9.1 11.5 14.2q0.4 4.6 0.4 9.2z"/>
        </g>
      </g>
      <g id="&lt;Group&gt;">
        <g id="&lt;Group&gt;">
          <path id="&lt;Path&gt;" class="s2" d="m2892.7 576.5c0 56.6-45.9 102.5-102.5 102.5-35.5 0-66.8-18.1-85.2-45.6-7.5-11.2-12.9-24-15.5-37.8-1.2-6.2-1.8-12.6-1.8-19.1 0-56.6 45.9-102.5 102.5-102.5 28.9 0 55.1 12 73.7 31.3 15.8 16.4 26.3 38 28.4 62q0.4 4.6 0.4 9.2z"/>
        </g>
      </g>
      <g id="&lt;Group&gt;">
        <g id="&lt;Group&gt;">
          <path id="&lt;Path&gt;" class="s3" d="m2892.7 576.5c0 56.6-45.9 102.5-102.5 102.5-35.5 0-66.8-18.1-85.2-45.6q-0.4-4.5-0.4-9.1c0-56.6 45.9-102.5 102.5-102.5 28.9 0 55 12 73.7 31.3 4.2 4.4 8.1 9.1 11.5 14.2q0.4 4.6 0.4 9.2z"/>
        </g>
      </g>
      <g id="&lt;Group&gt;">
        <g id="&lt;Group&gt;">
          <path id="&lt;Path&gt;" class="s2" d="m4553.6 2223.5c0 56.6-45.9 102.5-102.5 102.5-35.5 0-66.8-18.1-85.2-45.6-7.5-11.2-12.9-24-15.5-37.8-1.1-6.2-1.7-12.6-1.7-19.1 0-56.6 45.8-102.5 102.4-102.5 29 0 55.1 12 73.7 31.3 15.9 16.4 26.3 38 28.4 62.1q0.4 4.5 0.4 9.1z"/>
        </g>
      </g>
      <g id="&lt;Group&gt;">
        <g id="&lt;Group&gt;">
          <path id="&lt;Path&gt;" class="s3" d="m4553.6 2223.5c0 56.6-45.9 102.5-102.5 102.5-35.5 0-66.8-18.1-85.2-45.6q-0.4-4.5-0.4-9.1c0-56.6 45.9-102.5 102.5-102.5 28.9 0 55.1 12 73.7 31.3 4.2 4.4 8.1 9.2 11.5 14.3q0.4 4.5 0.4 9.1z"/>
        </g>
      </g>
      <g id="&lt;Group&gt;">
        <g id="&lt;Group&gt;">
          <path id="&lt;Path&gt;" class="s2" d="m2892.7 2223.5c0 56.6-45.9 102.5-102.5 102.5-35.5 0-66.8-18.1-85.2-45.6-7.5-11.2-12.9-24-15.5-37.8-1.2-6.2-1.8-12.6-1.8-19.1 0-56.6 45.9-102.5 102.5-102.5 28.9 0 55.1 12 73.7 31.3 15.8 16.4 26.3 38 28.4 62.1q0.4 4.5 0.4 9.1z"/>
        </g>
      </g>
      <g id="&lt;Group&gt;">
        <g id="&lt;Group&gt;">
          <path id="&lt;Path&gt;" class="s3" d="m2892.7 2223.5c0 56.6-45.9 102.5-102.5 102.5-35.5 0-66.8-18.1-85.2-45.6q-0.4-4.5-0.4-9.1c0-56.6 45.9-102.5 102.5-102.5 28.9 0 55 12 73.7 31.3 4.2 4.4 8.1 9.2 11.5 14.3q0.4 4.5 0.4 9.1z"/>
        </g>
      </g>
      <g id="&lt;Group&gt;">
        <g id="&lt;Group&gt;">
          <path id="&lt;Path&gt;" class="s4" d=""/>
        </g>
      </g>
      <g id="&lt;Group&gt;">
        <g id="&lt;Group&gt;">
          <path id="&lt;Path&gt;" class="s4" d=""/>
        </g>
      </g>
      <g id="&lt;Group&gt;">
        <g id="&lt;Group&gt;">
          <g id="&lt;Group&gt;">
            <path id="&lt;Path&gt;" class="s2" d="m3025 1264.5v-376.6l160.8-161.2h944.8l153.4 161.2v485l-156.3 155.2h-221.4l-43 33.6v217.7h-385v-339.1l165.4-167.4h278.5v-263.5l-38.3-33.6h-441.1l-35.8 33.6v255.1z"/>
          </g>
        </g>
        <g id="&lt;Group&gt;">
          <g id="&lt;Group&gt;">
            <path id="&lt;Path&gt;" class="s2" d="m3478.3 1968.7h385v264.9h-385z"/>
          </g>
        </g>
      </g>
      <g id="&lt;Group&gt;">
        <g id="&lt;Group&gt;">
          <g id="&lt;Group&gt;">
            <path id="&lt;Path&gt;" class="s5" d="m2975.9 1238.5v-376.6l160.9-161.2h944.7l153.4 161.2v485l-156.2 155.2h-221.4l-43 33.6v217.7h-385v-339.1l165.4-167.4h278.4v-263.5l-38.3-33.6h-441l-35.9 33.6v255.1z"/>
          </g>
        </g>
        <g id="&lt;Group&gt;">
          <g id="&lt;Group&gt;">
            <path id="&lt;Path&gt;" class="s5" d="m3429.3 1942.7h385v264.9h-385z"/>
          </g>
        </g>
      </g>
    </g>
  </g>
</svg>